<?xml version="1.0" encoding="UTF-8" standalone="no"?>
<!-- Created with Inkscape (http://www.inkscape.org/) -->

<svg
   xmlns:dc="http://purl.org/dc/elements/1.1/"
   xmlns:cc="http://creativecommons.org/ns#"
   xmlns:rdf="http://www.w3.org/1999/02/22-rdf-syntax-ns#"
   xmlns:svg="http://www.w3.org/2000/svg"
   xmlns="http://www.w3.org/2000/svg"
   xmlns:sodipodi="http://sodipodi.sourceforge.net/DTD/sodipodi-0.dtd"
   xmlns:inkscape="http://www.inkscape.org/namespaces/inkscape"
   width="1680"
   height="1024"
   id="svg2"
   version="1.1"
   inkscape:version="0.48.2 r9819"
   sodipodi:docname="wrd-bkg-v2.5.1-logo--.svg">
  <defs
     id="defs4">
    <inkscape:perspective
       sodipodi:type="inkscape:persp3d"
       inkscape:vp_x="120.30807 : 530.67946 : 1"
       inkscape:vp_y="0 : 1000 : 0"
       inkscape:vp_z="1800.3081 : 530.67946 : 1"
       inkscape:persp3d-origin="960.30807 : 397.34613 : 1"
       id="perspective3969" />
    <inkscape:path-effect
       effect="knot"
       id="path-effect3012"
       is_visible="true"
       interruption_width="3"
       prop_to_stroke_width="true"
       add_stroke_width="true"
       add_other_stroke_width="true"
       switcher_size="15"
       crossing_points_vector="" />
  </defs>
  <sodipodi:namedview
     id="base"
     pagecolor="#ffffff"
     bordercolor="#666666"
     borderopacity="0.47058824"
     inkscape:pageopacity="0.0"
     inkscape:pageshadow="2"
     inkscape:zoom="0.66468037"
     inkscape:cx="544.33995"
     inkscape:cy="336.34463"
     inkscape:document-units="px"
     inkscape:current-layer="layer3"
     showgrid="false"
     width="1680px"
     inkscape:showpageshadow="false"
     showborder="true"
     inkscape:window-width="1275"
     inkscape:window-height="756"
     inkscape:window-x="2"
     inkscape:window-y="0"
     inkscape:window-maximized="0"
     showguides="true"
     inkscape:guide-bbox="true">
    <sodipodi:guide
       orientation="0,1"
       position="-12.03586,716.13368"
       id="guide4002" />
    <sodipodi:guide
       orientation="0,1"
       position="218.08511,292.55319"
       id="guide4004" />
    <sodipodi:guide
       orientation="1,0"
       position="50,697.87234"
       id="guide4006" />
    <sodipodi:guide
       orientation="1,0"
       position="963.82979,601.06383"
       id="guide4008" />
    <sodipodi:guide
       orientation="0,1"
       position="121.86308,368.59822"
       id="guide4063" />
    <sodipodi:guide
       position="50,392"
       orientation="-216,0"
       id="guide8486" />
    <sodipodi:guide
       position="50,608"
       orientation="0,914"
       id="guide8488" />
    <sodipodi:guide
       position="964,608"
       orientation="216,0"
       id="guide8490" />
    <sodipodi:guide
       position="964,392"
       orientation="0,-914"
       id="guide8492" />
  </sodipodi:namedview>
  <metadata
     id="metadata7">
    <rdf:RDF>
      <cc:Work
         rdf:about="">
        <dc:format>image/svg+xml</dc:format>
        <dc:type
           rdf:resource="http://purl.org/dc/dcmitype/StillImage" />
        <dc:title></dc:title>
      </cc:Work>
    </rdf:RDF>
  </metadata>
  <g
     inkscape:groupmode="layer"
     id="layer2"
     inkscape:label="mask">
    <rect
       style="fill:#f2f2f2;fill-opacity:1;stroke:#a6a6a6;stroke-width:0.99608612;stroke-opacity:1"
       id="rect3809"
       width="1679.0039"
       height="1023.0039"
       x="0.49804306"
       y="0.49805069" />
    <rect
       style="fill:#f2f2f2;stroke:#c7c7c7;stroke-width:0.99960965000000002;stroke-opacity:1"
       id="rect4702"
       width="1279.0004"
       height="1024.0004"
       x="0.49980482"
       y="-0.50019521" />
    <rect
       style="fill:#ececec;fill-opacity:1;stroke:#c9c9c9;stroke-width:1.46047938;stroke-opacity:1;display:inline"
       id="rect3830"
       width="1023.5394"
       height="766.53955"
       x="0.73023969"
       y="0.73020953" />
  </g>
  <g
     inkscape:groupmode="layer"
     id="layer4"
     inkscape:label="bubbles">
    <path
       sodipodi:type="arc"
       style="fill:#999999;stroke:none;display:inline"
       id="path3985"
       sodipodi:cx="169.05359"
       sodipodi:cy="198.45963"
       sodipodi:rx="96.453888"
       sodipodi:ry="99.5653"
       d="m 265.50748,198.45963 a 96.453888,99.5653 0 1 1 -192.907779,0 96.453888,99.5653 0 1 1 192.907779,0 z"
       transform="matrix(0.38268517,0,0,-0.36166192,-320.20279,1224.4138)" />
    <path
       sodipodi:type="arc"
       style="fill:#f2f2f2;stroke:none;display:inline"
       id="path4031"
       sodipodi:cx="84.008224"
       sodipodi:cy="75.558708"
       sodipodi:rx="67.414009"
       sodipodi:ry="66.895439"
       d="m 151.42223,75.558708 a 67.414009,66.895439 0 1 1 -134.828015,0 67.414009,66.895439 0 1 1 134.828015,0 z"
       transform="matrix(0.38268517,0,0,0.36166192,-286.06969,1129.6254)" />
  </g>
  <g
     inkscape:label="Layer 1"
     inkscape:groupmode="layer"
     id="layer1"
     transform="translate(0,-28.36218)"
     style="display:inline" />
  <g
     inkscape:groupmode="layer"
     id="layer6"
     inkscape:label="tree"
     style="display:none">
    <path
       style="fill:#cccccc;stroke:none"
       d="m 853.46003,459.77957 c -1.01111,-27.74962 7.60308,-54.56205 15.73529,-80.74219 11.96254,9.78851 14.6149,7.29945 28.65523,33.36019 6.4292,2.97728 11.9627,-4.49956 9.0629,-10.27529 -2.524,-7.7491 -9.08495,-13.49136 -16.1339,-17.06155 -4.72988,-3.96861 -9.15816,-8.45331 -14.69325,-11.3115 6.54076,0.2529 13.30468,-0.73177 19.49924,0.28187 6.13391,-3.52408 18.37151,15.66617 24.55901,17.34504 6.6756,0.49016 12.7908,-5.53859 10.9289,-12.31797 -7.5461,-11.20005 -30.80554,-18.00719 -45.58578,-21.45945 -2.99772,-6.47268 8.03701,-8.85809 11.15348,-13.51244 3.89628,-4.47742 7.6329,-11.35142 4.6353,-17.17212 -5.70608,-4.13993 -11.72573,3.52203 -15.54885,7.1735 -4.74355,5.50205 -10.0211,10.54359 -13.83416,16.80761 -1.73855,4.48612 -6.71884,4.89095 -7.31847,-0.33801 -6.6026,-2.85683 -14.92246,-1.96476 -19.06697,-9.07046 -5.32709,-3.33916 -11.55583,0.31422 -17.1247,-1.97377 -4.90001,-3.99185 -17.37435,-0.54973 -12.25829,6.53377 6.97043,4.76098 16.37841,3.69172 23.10446,8.91101 4.7252,3.81141 17.46587,2.98053 16.28908,10.66537 -6.74642,3.9462 -14.24398,-3.10649 -21.15867,0.64201 -7.65537,2.88301 -14.8938,8.86825 -23.54343,7.48145 -4.66503,0.80608 -5.29935,6.95801 0.0235,7.94695 5.09126,2.04067 10.24755,1.68488 15.35188,0.14603 6.77776,-0.71339 14.5802,0.46121 20.07993,-4.4957 4.48601,-3.89973 14.38845,-0.88074 7.97743,5.32301 -5.96368,16.34704 -8.42789,33.71827 -11.24433,50.81887 -0.98681,8.24732 -1.71625,16.52282 -2.44159,24.79645 4.30173,-0.47469 8.93952,-0.46859 12.89714,1.49734 z"
       id="path4255"
       inkscape:connector-curvature="0"
       sodipodi:nodetypes="cccccccccccccccccccccccccccccc" />
    <path
       style="fill:#999999;stroke:none"
       d="m 850.48653,458.52561 c -1.01112,-27.74962 7.60307,-54.56206 15.73528,-80.74221 11.96254,9.78852 14.6149,7.29946 28.65524,33.36021 6.4292,2.97727 11.9627,-4.49955 9.0629,-10.2753 -2.5239,-7.74909 -9.085,-13.49136 -16.13391,-17.06155 -4.7298,-3.9686 -9.15816,-8.45331 -14.69317,-11.31151 6.54068,0.25292 13.3046,-0.73175 19.49928,0.28189 6.1338,-3.52408 18.3715,15.66617 24.5589,17.34504 6.6756,0.49017 12.7908,-5.53859 10.9289,-12.31798 -7.5461,-11.20004 -30.8055,-18.0072 -45.58571,-21.45944 -2.99772,-6.47268 8.03693,-8.8581 11.15341,-13.51244 3.8963,-4.47742 7.6329,-11.35143 4.6353,-17.17212 -5.706,-4.13992 -11.72574,3.52203 -15.54877,7.17349 -4.74364,5.50206 -10.02119,10.54359 -13.83417,16.80762 -1.73862,4.4861 -6.71884,4.89094 -7.31855,-0.33803 -6.60252,-2.85681 -14.92246,-1.96474 -19.06689,-9.07045 -5.32717,-3.33916 -11.55591,0.31423 -17.12478,-1.97376 -4.90001,-3.99185 -17.37435,-0.54973 -12.25829,6.53377 6.97051,4.76098 16.37841,3.69171 23.10446,8.911 4.7252,3.81141 17.46587,2.98053 16.28908,10.66538 -6.74642,3.94619 -14.24398,-3.1065 -21.15867,0.64201 -7.65528,2.88301 -14.89372,8.86824 -23.54343,7.48145 -4.66503,0.80607 -5.29935,6.95801 0.0235,7.94694 5.09126,2.04068 10.24755,1.68489 15.35188,0.14604 6.77776,-0.7134 14.58029,0.46121 20.08001,-4.4957 4.48593,-3.89973 14.38845,-0.88075 7.97743,5.32301 -5.96375,16.34703 -8.42797,33.71826 -11.24441,50.81887 -0.98681,8.2473 -1.71617,16.52282 -2.44159,24.79644 4.30181,-0.47468 8.93952,-0.46859 12.89714,1.49734 z"
       id="path4255-3"
       inkscape:connector-curvature="0"
       sodipodi:nodetypes="cccccccccccccccccccccccccccccc" />
  </g>
  <g
     inkscape:groupmode="layer"
     id="layer5"
     inkscape:label="sea"
     style="display:inline" />
  <g
     inkscape:groupmode="layer"
     id="layer7"
     inkscape:label="platform" />
  <g
     inkscape:groupmode="layer"
     id="layer3"
     inkscape:label="logo">
    <g
       id="g4029"
       transform="translate(588.28329,177.79861)">
      <path
         transform="matrix(6.0187347,0,0,-1.3808672,-1446.4766,1003.7259)"
         d="m 293.81075,673.79523 c 0,14.21457 -10.22567,25.73776 -22.83968,25.73776 -12.61401,0 -22.83968,-11.52319 -22.83968,-25.73776 0,-14.21458 10.22567,-25.73777 22.83968,-25.73777 12.61401,0 22.83968,11.52319 22.83968,25.73777 z"
         sodipodi:ry="25.737766"
         sodipodi:rx="22.83968"
         sodipodi:cy="673.79523"
         sodipodi:cx="270.97107"
         id="path4499"
         style="fill:#808080;stroke:none"
         sodipodi:type="arc" />
      <path
         transform="matrix(1.2588686,0,0,0.31603953,-26.502456,14.389586)"
         d="m 265.50748,198.45963 c 0,54.98839 -43.18388,99.5653 -96.45389,99.5653 -53.27001,0 -96.453889,-44.57691 -96.453889,-99.5653 0,-54.9884 43.183879,-99.565305 96.453889,-99.565305 53.27001,0 96.45389,44.576905 96.45389,99.565305 z"
         sodipodi:ry="99.5653"
         sodipodi:rx="96.453888"
         sodipodi:cy="198.45963"
         sodipodi:cx="169.05359"
         id="path3985-2"
         style="fill:#cccccc;stroke:none"
         sodipodi:type="arc" />
      <path
         transform="matrix(1.3950305,0,0,-0.36011582,65.087924,107.44913)"
         d="m 151.42223,75.558708 c 0,36.945332 -30.18228,66.895442 -67.414006,66.895442 -37.231729,0 -67.414009,-29.95011 -67.414009,-66.895442 0,-36.945331 30.18228,-66.895439 67.414009,-66.895439 37.231726,0 67.414006,29.950108 67.414006,66.895439 z"
         sodipodi:ry="66.895439"
         sodipodi:rx="67.414009"
         sodipodi:cy="75.558708"
         sodipodi:cx="84.008224"
         id="path4031-4"
         style="fill:#f9f9f9;stroke:none"
         sodipodi:type="arc" />
      <path
         transform="matrix(6.219141,0,0,-1.9979879,-1497.7959,1415.8964)"
         d="m 283.67564,667.33502 c 0,5.14688 -6.05102,9.31924 -13.51533,9.31924 -7.46431,0 -13.51534,-4.17236 -13.51534,-9.31924 0,-5.14687 6.05103,-9.31924 13.51534,-9.31924 7.46431,0 13.51533,4.17237 13.51533,9.31924 z"
         sodipodi:ry="9.3192387"
         sodipodi:rx="13.515334"
         sodipodi:cy="667.33502"
         sodipodi:cx="270.16031"
         id="path4564"
         style="fill:#b3b3b3;stroke:none"
         sodipodi:type="arc" />
      <path
         transform="matrix(6.219141,0,0,-1.950241,-1490.5564,1376.7849)"
         d="m 281.66641,662.61688 c 0,4.45873 -5.62258,8.07324 -12.55838,8.07324 -6.9358,0 -12.55837,-3.61451 -12.55837,-8.07324 0,-4.45873 5.62257,-8.07324 12.55837,-8.07324 6.9358,0 12.55838,3.61451 12.55838,8.07324 z"
         sodipodi:ry="8.0732403"
         sodipodi:rx="12.558374"
         sodipodi:cy="662.61688"
         sodipodi:cx="269.10803"
         id="path4493"
         style="fill:#ffffff;stroke:none"
         sodipodi:type="arc" />
    </g>
    <text
       xml:space="preserve"
       style="font-size:62.31458281999999826px;font-style:normal;font-weight:bold;line-height:125%;letter-spacing:0px;word-spacing:0px;fill:#999999;fill-opacity:1;stroke:none;font-family:Sans;-inkscape-font-specification:Sans Bold"
       x="50.127579"
       y="729.93237"
       id="text4679"
       sodipodi:linespacing="125%"
       transform="scale(0.99792949,1.0020748)"
       inkscape:export-filename="/Users/W/wrk/.virtualenvs/wrd/src/wrd.github.io/static/png/wrdrd-bkg-v2.5.1-logo--_footerlogo.png"
       inkscape:export-xdpi="90"
       inkscape:export-ydpi="90"><tspan
         sodipodi:role="line"
         id="tspan4681"
         x="50.127579"
         y="729.93237">wrd r&amp;d</tspan></text>
    <text
       xml:space="preserve"
       style="font-size:58.18354797px;font-style:normal;font-weight:normal;line-height:125%;letter-spacing:0px;word-spacing:0px;fill:#999999;fill-opacity:1;stroke:none;font-family:Sans"
       x="53.618469"
       y="735.80341"
       id="text4495"
       sodipodi:linespacing="125%"
       transform="scale(1.0100397,0.99006009)"
       inkscape:export-filename="/Users/W/wrk/.virtualenvs/wrd/src/wrd.github.io/static/png/wrdrd-bkg-v2.5.1-logo--_footerlogo.png"
       inkscape:export-xdpi="90"
       inkscape:export-ydpi="90"><tspan
         sodipodi:role="line"
         id="tspan4497"
         x="53.618469"
         y="735.80341"
         style="font-weight:bold;fill:#999999;-inkscape-font-specification:Sans Bold">wrd</tspan></text>
    <text
       xml:space="preserve"
       style="font-size:60.85784911999999736px;font-style:normal;font-weight:bold;line-height:125%;letter-spacing:0px;word-spacing:0px;fill:#b3b3b3;fill-opacity:1;stroke:none;font-family:Sans;-inkscape-font-specification:Sans Bold"
       x="49.865757"
       y="733.41595"
       id="text4656"
       sodipodi:linespacing="125%"
       transform="scale(1.0026921,0.99731513)"
       inkscape:export-filename="/Users/W/wrk/.virtualenvs/wrd/src/wrd.github.io/static/png/wrdrd-bkg-v2.5.1-logo--_footerlogo.png"
       inkscape:export-xdpi="90"
       inkscape:export-ydpi="90"><tspan
         sodipodi:role="line"
         id="tspan4658"
         x="49.865757"
         y="733.41595">wrd r&amp;d</tspan></text>
    <path
       id="path3016"
       style="fill:#b3b3b3;stroke:none;display:inline"
       d="m 418.68574,508.83161 c 41.98422,33.313 77.83466,-10.35407 119.30883,-55.94144 68.51843,-92.06358 122.68366,21.07017 82.34748,-1.59222 -31.77331,-19.00741 -46.97794,35.75083 -17.58521,69.16905 10.14213,9.15895 14.38731,16.82592 22.94281,17.28701 8.564,0.46154 13.03665,-15.55158 17.79161,-24.85791 166.19809,-128.03844 23.60327,97.94132 142.5168,24.32483 13.8588,-44.86284 183.93059,-16.88749 140.85249,1.79485 -34.13881,-158.86273 -163.63054,31.86205 -301.58874,22.67127 -22.14958,-2.04475 -47.64034,-7.56602 -61.36178,-28.61261 -3.8206,-5.86022 -11.88284,-103.34923 27.89781,-97.27414 15.00308,-15.4631 19.54173,-12.21654 31.03186,3.92311 -26.86112,-15.81143 -31.34579,-23.57095 -59.87608,-0.3222 -20.51907,13.56411 -22.75634,47.1367 -30.27007,73.06279 m -165.18913,-3.80644 c -5.1199,17.87427 -25.99637,4.40921 -37.94892,8.58242 -11.51211,1.95762 -220.6089,-11.92072 -273.6089,59.92245 79,81.36861 237,-63.75157 237,36.61707 653.97535,33.43567 941.9986,-96.53952 236.64313,-96.53952 -2.16963,0 -2.47133,-0.36682 -4.26426,-0.19888 -0.65042,0.0609 -2.61624,0.75185 -3.35708,0.76542 -0.65368,0.012 -1.86458,-0.50909 -2.57022,-0.4879 -0.60575,0.0182 -1.86232,0.4584 -2.48248,0.4584 -0.92697,0 -2.18003,-0.53704 -3.1148,-0.53704 -0.89152,0 -1.67912,0.75185 -2.57776,0.75185 -1.06894,0 -2.25043,-0.75185 -3.32959,-0.75185 -0.67824,0 -1.25105,0.53704 -1.93339,0.53704 -0.89152,0 -1.894,-0.53704 -2.79256,-0.53704 -0.92705,0 -1.53573,0.53704 -2.47033,0.53704 -0.785,0 -1.89484,-0.53704 -2.68521,-0.53704 -0.8916,0 -0.71259,-0.53704 -1.61107,-0.53704 -0.6427,0 -2.36121,0.53704 -3.00735,0.53704 -0.74948,0 -1.07171,0.42962 -1.82595,0.42962 -0.74948,0 -1.93096,-0.42962 -2.68521,-0.42962 -0.71385,0 -1.42989,-0.53704 -2.1481,-0.53704 -0.74947,0 -1.50137,0.53704 -2.25554,0.53704 -6.0732,0 -28.09716,-2.12655 -34.48606,-2.12655 -1.44455,0 -2.40244,0.56688 -3.41842,0.62781 -1.07168,0.0643 -2.19593,-0.37391 -3.54525,-0.23901 -0.82648,0.0826 -2.6488,0.56595 -3.56253,0.5643 -0.87761,-0.002 -2.41921,-0.66462 -3.34589,-0.70797 -1.5371,-0.0719 -3.93217,0.0794 -5.46111,-0.24513 7.22288,6.68219 27.03758,53.14948 52.57247,-7.90525 -74.5488,-54.17857 -115.55208,0.78808 -115.72762,1.44938 z"
       inkscape:connector-curvature="0"
       sodipodi:nodetypes="ccccsccccscccccccccssssssssssssssssssssssccc" />
    <path
       id="path3016-7"
       style="fill:#ffffff;stroke:none;display:inline"
       d="m 416.23222,518.56236 c -1.54479,-18.54202 41.94963,1.98368 55.27641,-2.0338 0.48007,-0.14472 0.96103,-0.29644 1.44281,-0.45505 23.70009,-7.80248 49.40251,-32.27841 70.0365,-60.37046 68.51835,-96.06475 122.68366,21.9859 82.34748,-1.66143 -31.77328,-19.83348 -46.97794,37.3046 -17.58521,72.17522 479.15789,-192.30476 371.47404,67.12578 18.01489,42.55498 -22.14959,-2.13362 -63.08855,-10.97344 -71.84009,-28.64169 -8.2648,-16.68561 3.09555,-108.59881 42.87621,-102.25969 15.00308,-16.13515 19.54172,-12.74749 31.03185,4.09361 -26.86111,-16.49862 -9.84579,-14.09537 -38.37617,10.16381 -20.51898,14.15359 -67.8683,56.57486 -37.39394,80.05458 M 351.88248,497.38978 c 0.79562,-17.57707 17.76597,-30.76859 0.93958,-10.0561 -17.40262,27.55899 -9.1449,-17.33595 9.17095,-25.59506 0.93839,-0.42315 13.05356,-9.07476 17.02208,-11.91799 19.87258,-14.2376 -26.55813,1.51756 -37.14006,11.62662 -2.94813,2.81639 -5.23178,6.13561 -6.13161,9.81493 -3.44081,-0.5138 -13.38092,-2.6 -12.10742,-7.11911 3.74907,-13.30388 10.05027,-21.70379 21.63226,-34.08837 16.92666,0.96781 49.17193,3.15116 45.13477,15.19225 -4.29567,11.37816 -41.73843,32.32845 -31.29654,16.34295 m -39.8002,49.11275 c -5.11991,18.65111 -21.74106,13.37745 -37.68297,10.81713 -15.76742,-0.88283 -186.68337,-2.8842 -225.68337,58.37924 0,67.73069 242,-61.04499 242,43.68574 657.5651,34.4946 941.79045,-100.73519 236.64307,-100.73519 -2.16963,0 -2.47133,-0.38277 -4.26426,-0.20753 -0.65033,0.0636 -2.61615,0.78452 -3.35708,0.79868 -0.65368,0.0125 -1.8645,-0.53121 -2.57014,-0.5091 -0.60583,0.0189 -1.86232,0.47832 -2.48248,0.47832 -0.92697,0 -2.18003,-0.56037 -3.11479,-0.56037 -0.89152,0 -1.67913,0.78452 -2.57777,0.78452 -1.06902,0 -2.25043,-0.78452 -3.32959,-0.78452 -0.67823,0 -1.25104,0.56037 -1.93339,0.56037 -0.89152,0 -1.894,-0.56037 -2.79256,-0.56037 -0.92705,0 -1.53573,0.56037 -2.47033,0.56037 -0.785,0 -1.89484,-0.56037 -2.6852,-0.56037 -0.89161,0 -0.7126,-0.56038 -1.61108,-0.56038 -0.6427,0 -2.36121,0.56038 -3.00743,0.56038 -0.74939,0 -1.07162,0.4483 -1.82587,0.4483 -0.74947,0 -1.93096,-0.4483 -2.68521,-0.4483 -0.71385,0 -54.62137,-3.75187 -55.33959,-3.75187 -0.74955,0 -1.50137,0.56038 -2.25553,0.56038 -6.07321,0 -28.09716,-2.21897 -34.48606,-2.21897 -1.44456,0 -2.40245,0.59151 -3.41851,0.65509 -1.07162,0.067 -2.19586,-0.39017 -3.54513,-0.2494 -0.82657,0.0862 -2.64885,0.59054 -3.56257,0.58882 -0.87761,-0.002 -2.41922,-0.69349 -3.34591,-0.73872 -1.53709,-0.075 -3.93216,0.0828 -5.4611,-0.25579 -1.51824,-0.33623 -2.39744,0 -3.60433,0 25.11092,-42.54635 87.26456,-24.0472 86.43934,-5.3888 -0.34189,7.73009 -56.98171,5.20593 -59.39496,14.6871 -3.68772,14.48831 -15.39966,34.37627 -18.82724,35.79394 -4.4569,1.8434 -8.26145,-5.92058 -9.46216,-31.1175 4.46903,-32.59417 -1.22322,-28.23294 -4.7423,-28.65909 -8.2592,-1.00014 -25.26893,38.57411 -19.60185,-7.28488 5.16581,2.05215 11.08114,-45.10447 -6.19148,-9.94484 -4.4018,8.96016 -21.99771,-0.85614 -27.77017,25.17761 z"
       inkscape:connector-curvature="0"
       sodipodi:nodetypes="cssccccsccccccssscsccccccccssssssssssssssssssssssscssscscsc" />
    <path
       id="path3016-7-9"
       style="fill:#999999;stroke:none;display:inline"
       d="m 420.62629,517.44271 c 56.61196,-8.17382 93.90913,-9.47101 123.1067,-52.48697 63.01843,-95.56475 119.68366,21.9859 79.34748,-1.66142 -12.35227,-7.71053 -32.7318,-7.54903 -38.42896,2.17597 -8.95742,15.29024 -0.32706,45.90158 17.45866,67.36639 8.96782,10.82287 32.64982,33.86574 42.7584,0.0186 0.25267,-0.84604 0.49687,-1.72763 0.73214,-2.64584 0.21739,-0.84841 0.42717,-1.72809 0.62897,-2.63989 174.3389,-105.5861 461.92982,24.49975 234.45465,55.39713 -51.42812,6.98535 -110.034,22.73064 -208.61027,15.70673 -40.23469,-4.2613 -94.69501,-30.6224 -103.44655,-48.29064 -8.2648,-16.68561 -21.8619,-98.59881 26.91876,-100.25969 21.00308,1.86485 11.54172,4.25252 30.03185,1.09362 -19.86111,-15.49862 -30.3919,-23.42664 -59.87608,-0.3362 -19.62498,15.36924 -32.3308,48.12147 -39.84454,75.17433 M 352.24149,513.33701 c 0.0559,-7.81675 -18.32354,-41.11161 1.60634,-42.42938 -9.09086,-17.4488 14.72455,-23.82119 11.91827,-2.62914 -1.59658,12.0568 -38.40251,41.57087 -21.32558,9.89249 9.59555,-17.80013 39.20951,5.20501 25.36094,14.07762 m -44.68626,26.70671 c -5.11991,18.65112 -31.13469,11.4519 -44.94893,9.95542 -59.95233,-3.92861 -66.22265,2.85136 -114.18111,10.61741 -7.72089,1.25026 162.47799,84.82575 30.34039,75.18649 -145.274577,-10.59759 -126.728991,-46.79435 -97.175219,-59.1784 12.233519,-5.12626 29.115069,-10.02857 27.667589,-9.68619 -5.69934,1.3481 34.83247,27.77354 33.50565,45.71976 -1.06588,14.41683 -42.26407,-23.40054 -56.91794,-33.74339 -2.4815,-1.75147 -4.20181,-2.71508 -4.837131,-2.50373 -88.098988,29.30695 -73.843494,74.48266 197.116531,77.5147 658.46912,0 941.79047,-100.73516 236.64313,-100.73516 -2.16964,0 -2.47134,-0.38276 -4.26427,-0.20752 -0.65041,0.0636 -2.61623,0.78452 -3.35707,0.79868 -0.65368,0.0125 -1.86459,-0.53121 -2.57023,-0.5091 -0.60574,0.0189 -1.86232,0.47832 -2.48248,0.47832 -0.92697,0 -2.18003,-0.56038 -3.11479,-0.56038 -0.89152,0 -1.67913,0.78453 -2.57777,0.78453 -1.06894,0 -2.25043,-0.78453 -3.32959,-0.78453 -0.67823,0 -1.25104,0.56038 -1.9333,0.56038 -0.89161,0 -1.89409,-0.56038 -2.79265,-0.56038 -0.92705,0 -1.53573,0.56038 -2.47033,0.56038 -0.785,0 -1.89484,-0.56038 -2.6852,-0.56038 -0.89161,0 -0.7126,-0.56038 -1.61108,-0.56038 -0.64262,0 -2.36113,0.56038 -3.00735,0.56038 -0.74947,0 -1.0717,0.4483 -1.82595,0.4483 -0.74947,0 -1.93096,-0.4483 -2.68521,-0.4483 -0.71385,0 -1.42988,-0.56038 -2.1481,-0.56038 -0.74947,0 -49.52186,-2.61696 -54.38319,-2.63111 -22.99058,-0.0669 -38.20485,0.99013 -53.81925,-2.21897 -1.51825,-0.33622 -2.39745,0 -3.60433,0 12.90413,-21.86394 33.74538,-42.48069 71.32989,-25.2166 4.00904,1.84152 31.39724,18.22722 30.5404,29.06001 -0.17596,2.22454 -72.51011,-4.77145 -72.84516,-2.41411 -4.60018,32.36576 -23.40696,73.1808 -34.76181,10.75142 -1.38062,-4.77287 -2.50772,-10.37685 -3.61814,-12.24136 -6.63408,0 -4.89282,-0.16661 -9.8787,-1.0527 -1.12348,-0.6767 -4.51984,-7.16455 -7.10969,-15.014 -0.53086,-1.60895 -1.02783,-3.2751 -1.4644,-4.96015 -1.37061,-5.29024 -2.14582,-10.76666 -1.50497,-15.24343 3.22374,-21.89947 -7.50349,-70.59807 -23.23824,28.59447 z"
       inkscape:connector-curvature="0"
       sodipodi:nodetypes="cccsssscscsccscccsscccsssssssccsssssssssssssssssccssscccsscc" />
    <path
       style="fill:#f9f9f9;stroke:none;display:inline"
       d="m 469.46132,521.20311 c -50.04856,-47.25811 -82.88514,-0.1873 -82.88514,-0.1873 z"
       id="path4783"
       inkscape:connector-curvature="0"
       sodipodi:nodetypes="ccc" />
    <path
       style="fill:#cccccc;stroke:none"
       d="m 380.0532,526.21555 c 0,0 39.62124,64.45391 100.53191,3.65374 3.7688,-3.76196 -100.53191,-3.65374 -100.53191,-3.65374 z"
       id="path3979"
       inkscape:connector-curvature="0"
       sodipodi:nodetypes="csc" />
    <path
       style="fill:#f9f9f9;stroke:none"
       d="m 609.89297,532.54528 c 7.6821,0 20.16367,0.35526 28.23382,0.35526 -0.94199,6.77017 -5.03809,11.2029 -10.86579,11.12782 -6.47276,-0.0834 -13.03695,-4.08524 -17.36803,-11.48308 z"
       id="path4090"
       inkscape:connector-curvature="0"
       sodipodi:nodetypes="ccsc" />
    <path
       sodipodi:nodetypes="ccsc"
       inkscape:connector-curvature="0"
       id="path4092"
       d="m 615.03709,532.55064 c 4.86893,0 13.50308,0.006 18.61796,0.006 -2.10151,3.27613 -3.95859,5.4905 -7.6522,5.45417 -4.10245,-0.0404 -8.22071,-1.88036 -10.96576,-5.46023 z"
       style="fill:#cccccc;stroke:none" />
  </g>
</svg>
